<svg xmlns="http://www.w3.org/2000/svg" viewBox="0 0 552.73 134.03"><defs><style>.cls-1{fill:#fff;}.cls-2{fill:#ff6500;}.cls-3{fill:#212121;}.cls-4{fill:#ffa000;}.cls-5{fill:#ffb188;}.cls-6{fill:#ffd183;}</style></defs><g id="Layer_2" data-name="Layer 2"><g id="Layer_1-2" data-name="Layer 1"><path class="cls-1" d="M325,56.89V77h-9.65A2.4,2.4,0,0,0,313,79.41v25.33a2.41,2.41,0,0,1-2.42,2.41H287.23a2.4,2.4,0,0,1-2.41-2.41V29.15a2.41,2.41,0,0,1,2.41-2.42h23.32A2.42,2.42,0,0,1,313,29.15V54.48a2.4,2.4,0,0,0,2.41,2.41Z"/><path class="cls-1" d="M196.73,97.1H170.4a2.42,2.42,0,0,0-2.26,1.55l-2.66,6.95a2.44,2.44,0,0,1-2.26,1.55H146.5a2.41,2.41,0,0,1-2.25-3.28L170.2,36.34a14.59,14.59,0,0,1,1.87-3.43l10.67,27.77-5,13A2.42,2.42,0,0,0,180,77h8.43a2.2,2.2,0,0,0,.58-.08Z"/><path class="cls-1" d="M222.09,107.15H204.91l-2.72-7.08-27-70.18h0l.69-.52a15,15,0,0,1,22.49,7l25.94,67.53a2.41,2.41,0,0,1-2.25,3.28"/><path class="cls-1" d="M258.68,50.86v53.88a2.41,2.41,0,0,1-2.41,2.41H233a2.41,2.41,0,0,1-2.42-2.41V50.86Z"/><path class="cls-1" d="M280.8,29.15V46.84H208.42V29.15a2.42,2.42,0,0,1,2.43-2.42h67.53a2.42,2.42,0,0,1,2.42,2.42"/><path class="cls-1" d="M357.2,29.15v75.59a2.41,2.41,0,0,1-2.42,2.41H329.05V26.73h25.73a2.43,2.43,0,0,1,2.42,2.42"/><path class="cls-2" d="M386.91,62.8V94.11H377.3V42.45h14.49L401,71.34q.62,2.43,1.28,4.86t1.28,4.86c.27-.93.53-1.85.77-2.77l.75-2.77c.26-.93.52-1.84.79-2.75l9.5-30.32h14.41V94.11H420.2V62.8c0-.71,0-2.13.09-4.27s.16-4.47.28-7q-1.29,4.92-2.26,8.36c-.64,2.3-1.18,4.1-1.59,5.39l-9.31,28.82h-7.7l-9.32-28.82-3.92-13.75q.22,4.26.33,7.06c.07,1.87.11,3.27.11,4.2"/><path class="cls-2" d="M476.31,74.24q0,9.65-5.35,15.12t-14.82,5.49q-9.27,0-14.55-5.5t-5.28-15.11q0-9.57,5.28-15t14.77-5.48q9.72,0,14.83,5.3t5.12,15.23m-10.78,0q0-7.08-2.31-10.27a7.79,7.79,0,0,0-6.71-3.19,8,8,0,0,0-7,3.36q-2.34,3.36-2.35,10.1t2.3,10.1A7.44,7.44,0,0,0,456,87.81a8.12,8.12,0,0,0,7.14-3.4q2.35-3.39,2.36-10.17m3.59-33.62L456.66,50.74h-6.24V49.6L459.66,39h9.46Z"/><path class="cls-2" d="M518.5,54.44,503.87,94.11H491.55L477.36,54.44h10.89l6.93,22.18q.29.91.93,3.21c.43,1.53,1,3.51,1.67,6,.1-.34.3-1,.61-2.05s.64-2.15,1-3.38.69-2.25,1-3.08l7.37-22.84Z"/><path class="cls-2" d="M533.56,47.29h-10.3V39.7h10.3Zm0,46.82h-10.3V54.44h10.3Z"/><rect class="cls-2" x="542.42" y="39.7" width="10.3" height="54.41"/><path class="cls-3" d="M67,134h0A67,67,0,0,1,0,67H0a67,67,0,1,1,134,0h0a67,67,0,0,1-67,67"/><path class="cls-2" d="M79.08,39.88,71,52.94H50.93A24.12,24.12,0,0,0,26.81,77.07V55A28.14,28.14,0,0,1,55,26.81H71Z"/><path class="cls-4" d="M107.23,57V79.08a28.15,28.15,0,0,1-28.15,28.15H63L55,94.16l8-13.07H83.1A24.13,24.13,0,0,0,107.23,57"/><path class="cls-5" d="M55,81.09v26.14A28.14,28.14,0,0,1,26.81,79.08v-2A24.12,24.12,0,0,1,50.93,52.94h2a6,6,0,0,0-6,6V75.06a6,6,0,0,0,6,6Z"/><path class="cls-6" d="M107.23,55v2A24.13,24.13,0,0,1,83.1,81.09h-2a6,6,0,0,0,6-6V59a6,6,0,0,0-6-6h-2V26.81A28.15,28.15,0,0,1,107.23,55"/></g></g></svg>